# xmcd
#
# Track frame offsets: 
#        150
#        17587
#        45426
#        68100
#        98076
#        125215
#        156520
#        182029
#        203207
#        225404
#
# Disc length: 3470 seconds
#
# Revision: 0
# Processed by: cddbd v1.5.2PL0 Copyright (c) Steve Scherf et al.
# Submitted via: ExactAudioCopy v0.99pb4
#
DISCID=810d8c0a
DTITLE=Carey Bell - Brought Up The Hard Way
DYEAR=1998
DGENRE=Blues
TTITLE0=Strange Woman
TTITLE1=Gladys Shuffle
TTITLE2=Nineteen Years Old
TTITLE3=I'm Going Upstairs
TTITLE4=Brought Up The Hard Way
TTITLE5=It's Alright In The Dark
TTITLE6=It's So Easy To Love You
TTITLE7=85%
TTITLE8=Locked Up So Long
TTITLE9=Second Hand Man
EXTD=
EXTT0=
EXTT1=
EXTT2=
EXTT3=
EXTT4=
EXTT5=
EXTT6=
EXTT7=
EXTT8=
EXTT9=
PLAYORDER=
